<svg viewBox="0 0 512 512" xmlns="http://www.w3.org/2000/svg"><path d="M256 0a256 256 0 100 512 256 256 0 000-512zm45 478a222 222 0 01-90 0v-71c0-16 5-22 11-31l18-27-23-3c-59-9-83-40-92-64-12-32-6-72 16-98 3-4 6-10 3-17-4-14-4-36-1-44 16 2 33 13 46 22 7 3 10 2 13 3 11-3 28-8 54-8 17 0 34 2 50 7 3 0 8 2 17-2 14-9 30-20 46-22 3 8 3 30-1 44-3 7 0 13 3 17 22 26 28 66 16 98-9 24-33 55-92 64l-23 3 19 27c5 9 10 15 10 31zm30-9v-62c0-17-4-28-8-37 45-12 78-39 92-78 15-40 8-89-17-123 4-20 4-52-6-67-5-6-12-10-20-10-24 1-42 13-62 25a212 212 0 00-108 0c-21-13-39-24-63-25-7 0-14 4-19 10-10 15-10 47-6 67-25 34-32 83-17 123 14 39 47 66 92 78-3 7-6 15-7 27-10 3-18 4-25 2-8-3-14-8-19-17-12-20-33-36-56-34l3 30c11-1 21 10 27 20 9 15 21 25 36 29 12 4 22 4 33 1v41a225 225 0 11301-212c0 98-64 181-151 212zm0 0"/></svg>