<svg xmlns="http://www.w3.org/2000/svg" viewBox="0 0 300 46.5"><path d="M15 26h10v-2h-2l5-22h3V0H21v2h2l-2 9H11l3-9h2l1-2H7L6 2h2L3 24H1l-1 2h10l1-2H8l3-10h9l-2 10h-3zm19 1l2-1 2-1 2-2 1-3v1a17 17 0 000 3v1l1 1h1l1 1a4 4 0 002-1l1-1 2-2 2-3-2-1-3 5-1-1 4-16h-5l-1 4a33 33 0 01-3 9l-2 2-2 1-1-1v-1l5-15-9 2-1 2h3l-2 10-1 3 1 2 3 1zm31 0l1-1h1l1-1 2-2 1-2-1-1-3 4h-1v-5l-1-3h-2v-1l1-1 1-1 1-1 1-3 1-1h1l-1 1v3h2l2-1 1-2-1-2-2-1-3 1-2 4-2 2-1 1-1 1h-1l2-9-9 2v2h3l-4 16h5l2-9h2l1 6 1 3h2zm13 0a6 6 0 005-2l1-2 2-3v1a17 17 0 00-1 3l1 1v1h1l1 1a4 4 0 003-1l1-1 1-2 2-3-1-1-3 5-1-1 4-16h-5l-1 4a33 33 0 01-4 9l-2 2-2 1v-2l4-15-9 2v2h3l-3 10v3l1 2 2 1zm22-17l-4 16h5l2-5a35 35 0 013-8l2-3 2-1 1 1v1l-4 15h5l1-5a33 33 0 013-8l2-3 2-1 1 1v1l-3 11a10 10 0 000 2v1l1 1h1l1 1 3-1 2-3 2-3-1-1-4 5v-1l3-10v-3l-1-3-3-1-2 1-2 1-1 2-2 3v-3l-1-3-2-1-2 1-2 1-2 2-1 3-1-1 2-6-8 2-1 2zm34 17l2-1 2-1 1-2 2-3v1a37 37 0 01-1 3l1 1v1h5l2-3 2-3-1-1-4 4 4-16h-3l-2 3-2-3-3-1-4 1-3 4-2 5-1 5 2 4 3 1zm7-18l2 1v3l-1 1a24 24 0 01-4 7l-1 2h-1-1v-2a14 14 0 010-3v-1l1-2 2-5 3-1zm16 17h14l4-1 3-2 2-2v-3-2l-1-2-2-1h-1v-1l5-2c2-1 1-3 1-5l-1-4-5-1h-12l-1 2h2l-5 22h-2zm12-2h-4l3-10h4l2 1 1 2v1l-1 2-1 3-4 1zm3-12h-4l3-10h3l2 1 1 2v2l-2 3-3 2zm17 15l3-1 2-1 3-3 1-3-1-1-3 4-3 2-2-1v-7l6-1 3-1 2-2v-2-2l-2-1-1-1h-3l-5 1c-2 0-2 2-3 4l-2 4v5l1 5 4 1zm1-12a40 40 0 012-5l1-2h1l1 1 1 1-1 2-1 1-2 1-3 1zm15-5l-4 16h5l1-5a35 35 0 013-8l3-3 1-1 1 1v1l-4 15h5l2-5a33 33 0 013-8l2-3 2-1 1 1-1 1-2 11a10 10 0 00-1 2v1l1 1h1l2 1 2-1c1 0 2-1 2-3l3-3-2-1-3 5-1-1 3-10 1-3-1-3-3-1-2 1-2 1-2 2-1 3-1-1v-2-3l-3-1a6 6 0 00-4 2l-1 2-2 3v-1l1-6-8 2v2zm42 17l1-1h1l1-1 2-2 1-2-1-1-3 3-1-4-1-3-2-1h1v-1l1-1 1-1 1-3 1-1h1l-1 1v1l1 2h1l2-1 1-2-1-2-2-1-3 1-3 4-1 2-1 1-1 1h-1l2-9-9 2v2h3l-4 16h5l2-9h2l1 6 1 3 2 1zm13 0l3-1 2-1 1-2 2-3v1a17 17 0 00-1 3l1 1v1h1l1 1a4 4 0 003-1l1-1 1-2 2-3-1-1-4 5v-1l4-16h-5l-1 4a33 33 0 01-4 9l-2 2-1 1-1-1v-1l4-15-9 2v2h3l-3 10v3l1 2 2 1zm33 0c2 0 3-1 5-4l2-3-1-1-4 4h-1l5-16h-5l-2 8h-6l2-9-8 2-1 2h3l-4 16h5l3-9h5l-1 4v5h3zM0 40h190v1H0zm203-4v-1h-5l-2 9h2v-4h3l1-1h-4l1-3zm-1 8h1l1-3 1-1 1-1 1-1h-1l-1 1-1 1v-2h-1zm7 0l-1-1v-1-1-1l1-1h2v3l-1 1-1 1zm0 0h1l1-1 1-1v-1-1l-1-1a2 2 0 00-1-1h-2l-1 1v1l-1 2 1 1v1h2zm4 0h1v-3a5 5 0 011-1l1-1h1v5h1v-4-2h-3l-1 2v-2h-1zm7-1v1h1a2 2 0 002 0l-1-1h-1v-4h2v-1h-1v-2h-1v2h-1v5zm4-3v1h3v-1zm9-1a2 2 0 00-1-1h-2l-1 1h-1v5h4v-1h-1a2 2 0 010 1 2 2 0 01-1 0l-1-1v-1l2-1h1v-1l1-1zm-2 0a1 1 0 011 0v1h-1a4 4 0 01-1 1h-1a4 4 0 010-2h2zm2 5h1l1-3a5 5 0 011-2h2v1l-1 4h1l1-4-1-2h-1-1l-1 2v-2h-1zm11 0h1l1-9h-1l-1 4v-1h-2l-1 1-1 1v4h3v-1h1v1zm-2-1a1 1 0 01-1 0 2 2 0 010-1v-2l1-1h2v3l-1 1h-1v1zm15-4l-1-1v-2h-1l-2-1h-3l-1 9h5l1-1a6 6 0 002-4zm-2 0v3a3 3 0 01-3 1h-2l1-7h2l1 1h1v2zm7 0a2 2 0 00-1-1h-1a3 3 0 00-2 1v1l-1 1v2l1 1h1a3 3 0 001 0h2v-1h-1a2 2 0 01-1 1l-1-1-1-1 2-1h2v-2zm-2 0h1v1l-1 1h-1a4 4 0 010-2h2zm3-1l2 6h1l3-6h-1l-2 4v1h-1v-1l-1-4zm11 1a2 2 0 00-1-1h-3v1l-1 1v4h1a3 3 0 002 0h1l1-1h-1a2 2 0 01-1 1 2 2 0 01-1 0l-1-1v-1l2-1h1l1-1v-1zm-2 0h1v1h-1l-1 1h-1a4 4 0 011-2h1zm3 5h1l1-9h-1zm5 0l-1-1v-1a4 4 0 010-2l1-1h2v3l-1 1-1 1zm0 0h1l1-1 1-1v-1-2h-1a2 2 0 00-1-1h-2l-1 1v1l-1 2 1 1v1h2zm4 2h1v-2h3a4 4 0 001-2 6 6 0 001-2l-1-2h-1a2 2 0 00-1 0h-1v1l-1 1 1-2h-1zm3-7h1v1a5 5 0 010 2l-1 1-1 1v-1h-1v-2l1-1v-1h1zm8 0v-1h-3l-1 1v1l-1 1v2l1 1h2a3 3 0 001 0l1-1h-1a2 2 0 01-1 0h-1l-1-1 2-1h2v-2zm-2 0h1v1l-1 1h-2a4 4 0 011-2h1zm3 5h1v-3l1-1 1-1h1v-1h-1l-1 2v-2h-1z" fill="#262626"/></svg>