<svg viewBox="1 -104 512 511" xmlns="http://www.w3.org/2000/svg"><path d="M457 202h-1l-22-23c-5-7-4-12 0-19l26-36c34-46 56-78 51-100l-2-12H383c0 1-7 30-35 79-20 35-33 47-38 49v-1c-2-2-5-7-6-20s0-30 1-46c1-18 2-34 0-46l-4-19c-4 0-21-7-68-7-41-1-53 5-59 10l-20 17 25 9c9 3 12 6 15 24 2 12 3 32 1 50-3 25-9 30-9 30-1-1-10-4-26-38-11-23-21-50-28-70L122 5H0l8 20c33 85 63 151 103 199 45 53 100 80 175 80h15v-15c0-14 1-24 4-31l5-13c3-6 6-8 8-9l7 3c9 7 16 15 23 24 10 13 21 26 38 34 9 5 26 8 35 8l91-1-1-15c-1-23-19-53-54-87zm-35 72c-7 1-19-2-23-3-11-6-19-16-28-27-8-10-16-20-28-29-9-7-18-9-24-9l-8 1c-7 2-18 7-27 24-3 5-6 10-8 17l-5 26c-56-3-100-25-137-69-34-41-61-98-90-171h57l3 9c8 22 18 51 30 76 17 36 33 52 52 52 9 0 17-4 23-11 9-11 14-28 16-53 2-19 0-39-1-50-2-9-3-18-8-26 19-1 44 0 60 3 1 7 0 23-1 38-2 36-4 73 15 90l7 5 10 3c3-1 25 10 66-62 13-23 25-49 32-67h73c-8 20-29 47-42 65l-28 39c-11 20-9 37 2 52 7 9 23 24 26 27 24 23 35 39 41 50h-55zm0 0"/></svg>